<?xml version="1.0" encoding="UTF-8" standalone="no"?>
<svg
   xmlns:dc="http://purl.org/dc/elements/1.1/"
   xmlns:cc="http://creativecommons.org/ns#"
   xmlns:rdf="http://www.w3.org/1999/02/22-rdf-syntax-ns#"
   xmlns:svg="http://www.w3.org/2000/svg"
   xmlns="http://www.w3.org/2000/svg"
   xmlns:sodipodi="http://sodipodi.sourceforge.net/DTD/sodipodi-0.dtd"
   xmlns:inkscape="http://www.inkscape.org/namespaces/inkscape"
   inkscape:version="1.0.1 (3bc2e813f5, 2020-09-07)"
   sodipodi:docname="contact.svg"
   viewBox="0 0 620.64001 563.29333"
   height="563.29333"
   width="620.64001"
   xml:space="preserve"
   id="svg2"
   version="1.1"><metadata
     id="metadata8"><rdf:RDF><cc:Work
         rdf:about=""><dc:format>image/svg+xml</dc:format><dc:type
           rdf:resource="http://purl.org/dc/dcmitype/StillImage" /><dc:title /></cc:Work></rdf:RDF></metadata><defs
     id="defs6"><rect
       id="rect1045"
       height="86.188272"
       width="190.35265"
       y="344.3436"
       x="47.628538" /><clipPath
       id="clipPath88"
       clipPathUnits="userSpaceOnUse"><path
         id="path86"
         d="m 699.219,2658.41 c 14.957,1.82 31.254,3.72 48.722,5.63 -17.464,-1.91 -33.769,-3.81 -48.722,-5.63 m 49.074,5.67 c 0.008,0 0.02,0 0.023,0 -0.011,0 -0.007,0 -0.023,0 m 0.527,0.06 c 0.02,0 0.039,0 0.063,0 -0.024,0 -0.043,0 -0.063,0 m 8.508,0.92 c 2.004,0.21 4.02,0.43 6.051,0.64 v 0 c -2.027,-0.21 -4.051,-0.43 -6.051,-0.64" /></clipPath></defs><sodipodi:namedview
     inkscape:current-layer="g132"
     inkscape:window-maximized="0"
     inkscape:window-y="4"
     inkscape:window-x="1370"
     inkscape:cy="257.13842"
     inkscape:cx="458.53058"
     inkscape:zoom="1.4237697"
     showgrid="false"
     id="namedview4"
     inkscape:window-height="1432"
     inkscape:window-width="2552"
     inkscape:pageshadow="2"
     inkscape:pageopacity="0"
     guidetolerance="10"
     gridtolerance="10"
     objecttolerance="10"
     borderopacity="1"
     bordercolor="#666666"
     pagecolor="#ffffff"
     inkscape:document-rotation="0" /><g
     transform="matrix(1.3333333,0,0,-1.3333333,0,563.29333)"
     inkscape:label="ink_ext_XXXXXX"
     inkscape:groupmode="layer"
     id="g10"><g
       transform="scale(0.1)"
       id="g12"><path
         id="path20"
         style="fill:#9ed7f0;fill-opacity:1;fill-rule:nonzero;stroke:none;stroke-width:1.1439"
         d="m 763.379,2665.7 c 913.192,574.2084 2034.8096,1552.2182 2126.1946,909.7624 91.3966,-642.4671 654.4069,-160.7673 985.5086,-119.8566 1138.0909,140.596 929.2195,-1182.0279 136.1322,-1675.864 -793.0754,-493.8359 -2138.6993,-727.7652 -1932.8101,-157.2233 126.5628,350.6879 -91.9604,240.081 -404.6864,129.4854 -196.0732,-69.3286 -429.1794,-138.6682 -637.4991,-94.3363 C 495.64791,1772.7433 426.17044,2453.6692 763.379,2665.7" /><path
         id="path30"
         style="fill:#063b59;fill-opacity:1;fill-rule:nonzero;stroke:none"
         d="m 2039.63,1637.45 c 0,114.52 -400.04,207.35 -893.5,207.35 -493.47,0 -893.501,-92.83 -893.501,-207.35 0,-114.51 400.031,-207.33 893.501,-207.33 493.46,0 893.5,92.82 893.5,207.33" /><path
         id="path32"
         style="fill:#26779b;fill-opacity:1;fill-rule:nonzero;stroke:none"
         d="m 943.504,2845.66 h -48.102 c -33.625,0 -60.879,-27.25 -60.879,-60.88 v -190.5 c 0,-33.63 27.254,-60.89 60.879,-60.89 h 48.102 c 33.625,0 60.886,27.26 60.886,60.89 v 190.5 c 0,33.63 -27.261,60.88 -60.886,60.88" /><path
         id="path34"
         style="fill:#1e678c;fill-opacity:1;fill-rule:nonzero;stroke:none"
         d="m 919.453,2679.2 v 166.46 h 11.61 c 40.492,0 73.327,-32.83 73.327,-73.32 v -88.42 c -29.132,-1.28 -57.531,-2.88 -84.937,-4.72" /><path
         id="path36"
         style="fill:#26779b;fill-opacity:1;fill-rule:nonzero;stroke:none"
         d="m 1343.79,2845.66 h 48.1 c 33.62,0 60.88,-27.25 60.88,-60.88 v -190.5 c 0,-33.63 -27.26,-60.89 -60.88,-60.89 h -48.1 c -33.63,0 -60.88,27.26 -60.88,60.89 v 190.5 c 0,33.63 27.25,60.88 60.88,60.88" /><path
         id="path38"
         style="fill:#1e678c;fill-opacity:1;fill-rule:nonzero;stroke:none"
         d="m 1367.84,2679.25 c -27.44,1.82 -55.86,3.41 -84.93,4.68 v 88.41 c 0,40.49 32.83,73.32 73.32,73.32 h 11.61 v -166.41" /><path
         id="path40"
         style="fill:#26779b;fill-opacity:1;fill-rule:nonzero;stroke:none"
         d="m 1725.83,2543.25 c -17.14,61.93 -69.94,107.4 -133.74,115.07 -104.36,12.54 -273.26,28.76 -448.54,28.76 -174.839,0 -341.405,-16.14 -444.331,-28.67 -63.313,-7.7 -115.774,-52.67 -133.188,-114.03 L 397.438,1950.25 c -5.95,-20.96 -7.239,-42.97 -3.77,-64.49 l 32.949,-204.43 c 7.934,-49.25 47.281,-87.41 96.762,-93.79 128.414,-16.55 384.309,-45.12 620.181,-45.12 235.86,0 491.75,28.57 620.17,45.12 49.48,6.38 88.82,44.54 96.76,93.79 l 33.03,204.94 c 3.41,21.19 2.22,42.86 -3.51,63.54 l -164.18,593.44" /><path
         id="path42"
         style="fill:#206a8f;fill-opacity:1;fill-rule:nonzero;stroke:none"
         d="m 1143.59,1769.59 c -39.2,0 -77.7,1.16 -115.59,3.16 l -213.586,213.58 58.246,507.88 h 528.28 l 201.21,-201.21 66.58,-316.78 28.41,-135.17 c -174.92,-37.66 -373.69,-70.16 -543.41,-71.42 -0.01,0 -0.03,0 -0.05,0 -0.64,0 -1.29,-0.01 -1.93,-0.01 -0.05,0 -0.1,0 -0.15,0 -0.63,-0.01 -1.24,-0.01 -1.87,-0.01 -0.06,0 -0.12,0 -0.18,0 -0.28,-0.01 -0.56,-0.01 -0.84,-0.01 -0.03,0 -0.07,0 -0.1,0 -0.3,0 -0.61,0 -0.91,0 -0.06,0 -0.15,0 -0.21,0 -0.26,0 -0.48,0 -0.74,0 -0.07,0 -0.13,0 -0.2,0 -0.31,0 -0.59,-0.01 -0.9,-0.01 -0.06,0 -0.11,0 -0.17,0 -0.25,0 -0.49,0 -0.74,0 -0.09,0 -0.16,0 -0.25,0 -0.3,0 -0.6,0 -0.9,0" /><path
         id="path44"
         style="fill:#014b7c;fill-opacity:1;fill-rule:nonzero;stroke:none"
         d="m 1306.16,2394.66 0.63,-0.41 0.63,-0.41 0.62,-0.4 0.63,-0.41 0.63,-0.41 0.63,-0.41 0.62,-0.41 0.63,-0.41 0.63,-0.41 0.63,-0.4 0.63,-0.41 0.62,-0.41 0.63,-0.41 0.63,-0.41 0.63,-0.41 0.62,-0.4 c 11.68,-7.95 25.77,-12.6 40.96,-12.6 40.27,0 72.91,32.64 72.91,72.91 0,25.34 -12.95,47.65 -32.57,60.72 l -0.64,0.41 -0.62,0.4 -0.63,0.41 -0.63,0.41 -0.63,0.41 -0.63,0.41 -0.62,0.41 -0.63,0.4 -0.63,0.41 -0.63,0.41 -0.63,0.41 -0.62,0.41 -0.63,0.41 -0.63,0.41 -0.63,0.41 -0.63,0.4 c -11.67,7.95 -25.77,12.6 -40.95,12.6 -40.27,0 -72.91,-32.64 -72.91,-72.91 0,-25.35 12.95,-47.65 32.58,-60.72" /><path
         id="path46"
         style="fill:#014b7c;fill-opacity:1;fill-rule:nonzero;stroke:none"
         d="m 1328.14,2159.72 0.63,-0.4 0.62,-0.41 0.63,-0.41 0.63,-0.41 0.63,-0.41 0.63,-0.4 0.62,-0.41 0.63,-0.41 0.63,-0.41 0.63,-0.41 0.62,-0.41 0.63,-0.4 0.63,-0.41 0.63,-0.41 0.63,-0.41 c 11.67,-7.95 25.77,-12.6 40.95,-12.6 40.27,0 72.91,32.65 72.91,72.91 0,25.35 -12.95,47.66 -32.58,60.72 l -0.63,0.41 -0.63,0.41 -0.62,0.4 -0.63,0.41 -0.63,0.41 -0.63,0.41 -0.63,0.41 -0.62,0.41 -0.63,0.4 -0.63,0.41 -0.63,0.41 -0.63,0.41 -0.62,0.4 -0.63,0.41 -0.63,0.41 -0.63,0.41 c -11.67,7.95 -25.77,12.6 -40.95,12.6 -40.27,0 -72.91,-32.64 -72.91,-72.91 0,-25.34 12.95,-47.65 32.58,-60.72 l 0.63,-0.41" /><path
         id="path48"
         style="fill:#014b7c;fill-opacity:1;fill-rule:nonzero;stroke:none"
         d="m 991.703,2509.16 -0.625,0.4 -0.629,0.41 -0.629,0.41 -0.625,0.41 -0.625,0.41 -0.636,0.41 -0.625,0.41 -0.629,0.4 -0.629,0.41 -0.625,0.41 -0.629,0.41 -0.625,0.41 -0.629,0.41 -0.633,0.41 -0.625,0.41 -0.629,0.4 c -11.676,7.95 -25.773,12.6 -40.957,12.6 -40.265,0 -72.906,-32.64 -72.906,-72.91 0,-25.35 12.949,-47.65 32.578,-60.72 l 0.633,-0.41 0.625,-0.41 0.629,-0.41 0.629,-0.4 0.625,-0.41 0.625,-0.41 0.629,-0.41 0.629,-0.41 0.632,-0.41 0.625,-0.4 0.625,-0.41 0.633,-0.41 0.625,-0.41 0.633,-0.41 0.625,-0.4 0.629,-0.41 c 11.672,-7.95 25.769,-12.6 40.957,-12.6 40.262,0 72.901,32.64 72.901,72.91 0,25.34 -12.95,47.66 -32.577,60.72" /><path
         id="path50"
         style="fill:#014b7c;fill-opacity:1;fill-rule:nonzero;stroke:none"
         d="m 1194.6,2509.16 -0.63,0.4 -0.63,0.41 -0.62,0.41 -0.63,0.41 -0.63,0.41 -0.63,0.41 -0.63,0.41 -0.62,0.4 -0.63,0.41 -0.63,0.41 -0.63,0.41 -0.63,0.41 -0.62,0.41 -0.64,0.41 -0.62,0.41 -0.63,0.4 c -11.67,7.95 -25.77,12.6 -40.96,12.6 -40.26,0 -72.91,-32.64 -72.91,-72.91 0,-25.35 12.95,-47.65 32.59,-60.72 l 0.62,-0.41 0.63,-0.41 0.63,-0.4 0.63,-0.41 0.63,-0.41 0.63,-0.41 0.62,-0.41 0.63,-0.41 0.63,-0.41 0.63,-0.4 0.62,-0.41 0.63,-0.41 0.63,-0.41 0.63,-0.41 0.62,-0.4 0.63,-0.41 c 11.68,-7.95 25.77,-12.6 40.96,-12.6 40.27,0 72.91,32.64 72.91,72.91 0,25.34 -12.95,47.66 -32.58,60.72" /><path
         id="path52"
         style="fill:#014b7c;fill-opacity:1;fill-rule:nonzero;stroke:none"
         d="m 970.352,2274.63 -0.625,0.41 -0.629,0.41 -0.629,0.4 -0.625,0.41 -0.625,0.41 -0.629,0.41 -0.633,0.41 -0.629,0.4 -0.625,0.41 -0.625,0.41 -0.629,0.41 -0.633,0.41 -0.628,0.41 -0.625,0.4 -0.629,0.41 -0.629,0.41 c -11.676,7.95 -25.77,12.6 -40.953,12.6 -40.27,0 -72.911,-32.64 -72.911,-72.91 0,-25.34 12.95,-47.65 32.579,-60.72 l 0.628,-0.41 0.625,-0.4 0.629,-0.41 0.633,-0.41 0.629,-0.41 0.625,-0.41 0.629,-0.41 0.625,-0.4 0.633,-0.41 0.629,-0.41 0.625,-0.41 0.629,-0.41 0.625,-0.4 0.629,-0.41 0.625,-0.41 0.636,-0.41 c 11.672,-7.95 25.766,-12.6 40.949,-12.6 40.27,0 72.917,32.65 72.917,72.91 0,25.35 -12.956,47.66 -32.588,60.72" /><path
         id="path54"
         style="fill:#014b7c;fill-opacity:1;fill-rule:nonzero;stroke:none"
         d="m 1194.6,2274.63 -0.63,0.4 -0.63,0.42 -0.62,0.4 -0.63,0.41 -0.63,0.41 -0.63,0.41 -0.63,0.41 -0.62,0.4 -0.63,0.41 -0.63,0.41 -0.63,0.41 -0.63,0.41 -0.62,0.41 -0.63,0.4 -0.63,0.41 -0.63,0.41 c -11.67,7.95 -25.77,12.6 -40.96,12.6 -40.26,0 -72.91,-32.64 -72.91,-72.91 0,-25.34 12.95,-47.65 32.59,-60.72 l 0.62,-0.41 0.63,-0.4 0.63,-0.41 0.63,-0.41 0.63,-0.41 0.63,-0.41 0.62,-0.4 0.63,-0.41 0.63,-0.41 0.63,-0.41 0.62,-0.41 0.63,-0.41 0.63,-0.4 0.63,-0.41 0.62,-0.41 0.64,-0.41 c 11.67,-7.95 25.77,-12.6 40.95,-12.6 40.27,0 72.91,32.65 72.91,72.91 0,25.35 -12.95,47.66 -32.58,60.72" /><path
         id="path56"
         style="fill:#014b7c;fill-opacity:1;fill-rule:nonzero;stroke:none"
         d="m 938.324,2040.1 -0.625,0.41 -0.629,0.41 -0.629,0.41 -0.625,0.41 -0.625,0.4 -0.636,0.41 -0.625,0.41 -0.629,0.41 -0.625,0.41 -0.625,0.4 -0.633,0.41 -0.625,0.41 -0.633,0.41 -0.625,0.41 -0.629,0.41 -0.629,0.41 c -11.675,7.94 -25.765,12.59 -40.953,12.59 -40.269,0 -72.91,-32.64 -72.91,-72.9 0,-25.35 12.949,-47.67 32.582,-60.72 l 0.625,-0.41 0.625,-0.41 0.633,-0.41 0.629,-0.41 0.629,-0.4 0.625,-0.41 0.629,-0.41 0.625,-0.41 0.636,-0.41 0.625,-0.41 0.625,-0.4 0.629,-0.41 0.625,-0.41 0.629,-0.41 0.625,-0.41 0.633,-0.41 c 11.676,-7.94 25.77,-12.59 40.957,-12.59 40.262,0 72.91,32.63 72.91,72.9 0,25.35 -12.949,47.66 -32.586,60.72" /><path
         id="path58"
         style="fill:#014b7c;fill-opacity:1;fill-rule:nonzero;stroke:none"
         d="m 1450.87,2040.1 -0.63,0.41 -0.62,0.41 -0.63,0.41 -0.63,0.4 -0.63,0.41 -0.63,0.41 -0.63,0.41 -0.62,0.41 -0.63,0.4 -0.63,0.42 -0.63,0.4 -0.63,0.41 -0.62,0.41 -0.63,0.41 -0.63,0.41 -0.63,0.41 c -11.67,7.94 -25.77,12.59 -40.96,12.59 -40.26,0 -72.9,-32.64 -72.9,-72.9 0,-25.35 12.95,-47.67 32.58,-60.72 l 0.63,-0.41 0.62,-0.41 0.63,-0.41 0.63,-0.41 0.63,-0.4 0.63,-0.41 0.62,-0.41 0.63,-0.41 0.64,-0.41 0.62,-0.41 0.63,-0.4 0.62,-0.41 0.63,-0.41 0.63,-0.41 0.63,-0.41 0.62,-0.41 c 11.68,-7.94 25.77,-12.59 40.96,-12.59 40.27,0 72.91,32.63 72.91,72.9 0,25.35 -12.95,47.65 -32.58,60.72" /><path
         id="path60"
         style="fill:#014b7c;fill-opacity:1;fill-rule:nonzero;stroke:none"
         d="m 1194.6,2040.1 -0.63,0.41 -0.63,0.41 -0.62,0.41 -0.63,0.41 -0.63,0.4 -0.63,0.41 -0.63,0.41 -0.62,0.41 -0.63,0.41 -0.63,0.41 -0.63,0.4 -0.63,0.41 -0.62,0.41 -0.63,0.41 -0.63,0.41 -0.63,0.41 c -11.67,7.94 -25.77,12.59 -40.96,12.59 -40.26,0 -72.91,-32.64 -72.91,-72.9 0,-25.35 12.95,-47.67 32.59,-60.72 l 0.62,-0.41 0.63,-0.41 0.63,-0.41 0.63,-0.41 0.63,-0.4 0.63,-0.41 0.62,-0.41 0.63,-0.41 0.63,-0.41 0.63,-0.41 0.62,-0.4 0.63,-0.41 0.63,-0.41 0.63,-0.41 0.62,-0.41 0.63,-0.41 c 11.68,-7.94 25.77,-12.59 40.96,-12.59 40.27,0 72.91,32.63 72.91,72.9 0,25.35 -12.95,47.66 -32.58,60.72" /><path
         id="path62"
         style="fill:#d2eff7;fill-opacity:1;fill-rule:nonzero;stroke:none"
         d="m 1013.61,2455.38 c 0,40.27 -32.641,72.91 -72.911,72.91 -40.265,0 -72.906,-32.64 -72.906,-72.91 0,-40.26 32.641,-72.91 72.906,-72.91 40.27,0 72.911,32.65 72.911,72.91" /><path
         id="path64"
         style="fill:#d2eff7;fill-opacity:1;fill-rule:nonzero;stroke:none"
         d="m 1419.4,2455.38 c 0,40.27 -32.65,72.91 -72.91,72.91 -40.27,0 -72.91,-32.64 -72.91,-72.91 0,-40.26 32.64,-72.91 72.91,-72.91 40.26,0 72.91,32.65 72.91,72.91" /><path
         id="path66"
         style="fill:#d2eff7;fill-opacity:1;fill-rule:nonzero;stroke:none"
         d="m 1216.5,2455.38 c 0,40.27 -32.64,72.91 -72.91,72.91 -40.26,0 -72.91,-32.64 -72.91,-72.91 0,-40.26 32.65,-72.91 72.91,-72.91 40.27,0 72.91,32.65 72.91,72.91" /><path
         id="path68"
         style="fill:#d2eff7;fill-opacity:1;fill-rule:nonzero;stroke:none"
         d="m 992.258,2220.85 c 0,40.27 -32.645,72.91 -72.906,72.91 -40.27,0 -72.911,-32.64 -72.911,-72.91 0,-40.26 32.641,-72.91 72.911,-72.91 40.261,0 72.906,32.65 72.906,72.91" /><path
         id="path70"
         style="fill:#d2eff7;fill-opacity:1;fill-rule:nonzero;stroke:none"
         d="m 1440.75,2220.85 c 0,40.27 -32.64,72.91 -72.91,72.91 -40.27,0 -72.91,-32.64 -72.91,-72.91 0,-40.26 32.64,-72.91 72.91,-72.91 40.27,0 72.91,32.65 72.91,72.91" /><path
         id="path72"
         style="fill:#d2eff7;fill-opacity:1;fill-rule:nonzero;stroke:none"
         d="m 1216.5,2220.85 c 0,40.27 -32.64,72.91 -72.91,72.91 -40.26,0 -72.91,-32.64 -72.91,-72.91 0,-40.26 32.65,-72.91 72.91,-72.91 40.27,0 72.91,32.65 72.91,72.91" /><path
         id="path74"
         style="fill:#d2eff7;fill-opacity:1;fill-rule:nonzero;stroke:none"
         d="m 960.23,1986.33 c 0,40.26 -32.64,72.9 -72.906,72.9 -40.269,0 -72.91,-32.64 -72.91,-72.9 0,-40.27 32.641,-72.91 72.91,-72.91 40.266,0 72.906,32.64 72.906,72.91" /><path
         id="path76"
         style="fill:#d2eff7;fill-opacity:1;fill-rule:nonzero;stroke:none"
         d="m 1472.77,1986.33 c 0,40.26 -32.64,72.9 -72.91,72.9 -40.26,0 -72.9,-32.64 -72.9,-72.9 0,-40.27 32.64,-72.91 72.9,-72.91 40.27,0 72.91,32.64 72.91,72.91" /><path
         id="path78"
         style="fill:#d2eff7;fill-opacity:1;fill-rule:nonzero;stroke:none"
         d="m 1216.5,1986.33 c 0,40.26 -32.64,72.9 -72.91,72.9 -40.26,0 -72.91,-32.64 -72.91,-72.9 0,-40.27 32.65,-72.91 72.91,-72.91 40.27,0 72.91,32.64 72.91,72.91" /><path
         id="path80"
         style="fill:#014b7c;fill-opacity:1;fill-rule:nonzero;stroke:#800080"
         d="m 1143.59,1769.59 c -286.516,0 -538.102,56.53 -750.836,124.84 0.293,-2.89 0.449,-5.79 0.914,-8.67 l 32.949,-204.43 c 7.934,-49.25 47.281,-87.41 96.762,-93.79 128.414,-16.55 384.309,-45.12 620.171,-45.12 235.87,0 491.76,28.57 620.18,45.12 49.48,6.38 88.82,44.54 96.76,93.79 l 33.03,204.94 0.11,1.1 c -209.12,-53.51 -510.21,-117.78 -750.04,-117.78" /><g
         id="g82"><g
           clip-path="url(#clipPath88)"
           id="g84"><path
             id="path90"
             style="fill:#c9dde6;fill-opacity:1;fill-rule:nonzero;stroke:none"
             d="m 699.219,2658.41 h 64.1602 v 7.2891 H 699.219 Z" /></g></g><path
         id="path92"
         style="fill:#053350;fill-opacity:1;fill-rule:nonzero;stroke:none"
         d="m 629.563,1574.8 c -40.875,4.55 -76.856,8.96 -106.184,12.74 -49.481,6.38 -88.828,44.54 -96.762,93.79 l -12.117,75.18 v 0 l 12.117,-75.18 c 7.934,-49.25 47.281,-87.41 96.762,-93.79 29.332,-3.78 65.312,-8.19 106.184,-12.74" /><path
         id="path94"
         style="fill:#1e678c;fill-opacity:1;fill-rule:nonzero;stroke:none"
         d="m 589.539,1838.57 c -68.863,16.86 -134.484,35.85 -196.785,55.86 0.293,-2.89 0.449,-5.79 0.914,-8.67 -1.273,7.9 -1.906,15.87 -1.902,23.83 0.007,13.71 1.91,27.4 5.672,40.66 l 168.593,594.13 c 17.414,61.36 69.875,106.33 133.188,114.03 v 0 c 14.953,1.82 31.258,3.72 48.722,5.63 0.118,0.01 0.235,0.03 0.352,0.04 0.016,0 0.012,0 0.023,0 0.168,0.02 0.336,0.04 0.504,0.06 0.02,0 0.039,0 0.063,0 2.785,0.31 5.601,0.61 8.445,0.92 2,0.21 4.024,0.43 6.051,0.64 l -173.852,-827.08 0.012,-0.05" /><path
         id="path96"
         style="fill:#014170;fill-opacity:1;fill-rule:nonzero;stroke:none"
         d="m 658.285,1571.67 c -9.812,1.05 -19.394,2.09 -28.722,3.13 -40.872,4.55 -76.852,8.96 -106.184,12.74 -49.481,6.38 -88.828,44.54 -96.762,93.79 l -12.117,75.18 -20.832,129.25 v 0 c -0.465,2.88 -0.621,5.78 -0.914,8.67 62.301,-20.01 127.922,-39 196.785,-55.86 l 68.746,-266.9" /><path
         id="path98"
         style="fill:#c9dde6;fill-opacity:1;fill-rule:nonzero;stroke:none"
         d="m 1872.94,1758.08 c -0.02,0.01 -0.06,0.02 -0.07,0.03 l 14.54,90.24 c 0.03,0.01 0.05,0.02 0.08,0.03 l -14.55,-90.3" /><path
         id="path100"
         style="fill:#7cbad8;fill-opacity:1;fill-rule:nonzero;stroke:none"
         d="m 1887.41,1848.35 6.11,37.92 c 1.26,7.85 1.9,15.77 1.9,23.68 0.02,-8.08 -0.61,-16.17 -1.9,-24.19 l -6.03,-37.38 c -0.03,-0.01 -0.05,-0.02 -0.08,-0.03" /><path
         id="path102"
         style="fill:#053350;fill-opacity:1;fill-rule:nonzero;stroke:none"
         d="m 1628.9,1571.67 v 0 c 37.17,3.98 70.97,7.92 100.3,11.53 12.33,1.51 23.87,2.97 34.53,4.34 49.48,6.38 88.82,44.54 96.76,93.79 l 12.38,76.78 c 0.01,-0.01 0.05,-0.02 0.07,-0.03 l -12.37,-76.75 c -7.93,-49.25 -47.28,-87.41 -96.76,-93.79 -36.02,-4.65 -82.08,-10.23 -134.91,-15.87" /><path
         id="path104"
         style="fill:#1e678c;fill-opacity:1;fill-rule:nonzero;stroke:none"
         d="m 1628.9,1571.67 v 0 c 37.17,3.98 70.97,7.92 100.3,11.53 -29.33,-3.61 -63.13,-7.55 -100.3,-11.52 m 68.26,269.31 -28.43,135.23 -66.58,316.78 -78.35,372.7 c 23.38,-2.47 44.89,-4.94 64.17,-7.29 63.31,-7.7 115.78,-52.67 133.19,-114.03 l 168.59,-594.13 c 3.73,-13.15 5.63,-26.71 5.67,-40.3 0,-7.91 -0.64,-15.83 -1.9,-23.68 l 0.11,1.1 c -59.26,-15.17 -125.93,-31.2 -196.47,-46.38" /><path
         id="path106"
         style="fill:#195c81;fill-opacity:1;fill-rule:nonzero;stroke:none"
         d="M 1668.73,1976.22 1602.15,2293 v 0 l 66.58,-316.78" /><path
         id="path108"
         style="fill:#014170;fill-opacity:1;fill-rule:nonzero;stroke:none"
         d="m 1628.9,1571.67 68.76,266.95 -0.5,2.37 c 70.54,15.18 137.21,31.21 196.47,46.38 l -0.11,-1.1 -6.11,-37.92 -14.54,-90.24 -12.38,-76.78 c -7.94,-49.25 -47.28,-87.41 -96.76,-93.79 -10.66,-1.37 -22.2,-2.83 -34.53,-4.34 -29.33,-3.61 -63.13,-7.55 -100.3,-11.52" /><path
         id="path110"
         style="fill:#26779b;fill-opacity:1;fill-rule:nonzero;stroke:none"
         d="m 2206.79,2900.68 c -113.36,53.91 -229.83,98.72 -348.35,134.41 -464.36,139.84 -960.272,139.84 -1424.631,0 -118.52,-35.69 -234.985,-80.5 -348.3442,-134.41 -72.9062,-34.62 -104.8867,-112.28 -73.3515,-168.14 6.7265,-12.23 13.4453,-24.46 20.168,-36.68 36.7031,-39.19 72.6637,-78.92 107.8707,-119.17 22.993,-26.04 62.168,-32.65 95.004,-16.85 65.848,31.74 132.942,59.85 201,84.33 33.93,12.24 56.121,44.66 53.496,79.27 -4.273,53.25 -7.691,106.67 -10.242,160.24 434.633,130.89 898.8,130.89 1333.43,0 -2.55,-53.57 -5.96,-106.99 -10.24,-160.24 -2.62,-34.61 19.57,-67.03 53.49,-79.27 68.07,-24.48 135.17,-52.59 201.01,-84.33 32.83,-15.8 72.01,-9.19 95.01,16.85 35.19,40.25 71.16,79.98 107.86,119.17 6.72,12.22 13.45,24.45 20.17,36.68 31.54,55.86 -0.44,133.52 -73.35,168.14" /><path
         id="path112"
         style="fill:#c9dde6;fill-opacity:1;fill-rule:nonzero;stroke:none"
         d="m 82.1406,2899.06 c 0.0157,0.01 0.0313,0.02 0.0469,0.02 -0.0156,0 -0.0312,-0.01 -0.0469,-0.02 m 0.6524,0.32 c 0.0156,0.01 0.0351,0.02 0.0468,0.03 -0.0156,-0.01 -0.0273,-0.02 -0.0468,-0.03 m 0.3476,0.18 c 0.0039,0 0.0157,0 0.0196,0.01 -0.0039,-0.01 -0.0118,-0.01 -0.0196,-0.01 m 0.293,0.14 c 0.0234,0.01 0.0469,0.02 0.0703,0.04 -0.0234,-0.02 -0.0469,-0.03 -0.0703,-0.04 m 0.3477,0.17 c 0.0234,0.01 0.0507,0.03 0.0742,0.04 -0.0235,-0.01 -0.0469,-0.03 -0.0742,-0.04 m 0.3125,0.15 c 0.0195,0.01 0.0429,0.02 0.0664,0.03 -0.0235,-0.01 -0.043,-0.02 -0.0664,-0.03" /><path
         id="path114"
         style="fill:#c9dde6;fill-opacity:1;fill-rule:nonzero;stroke:none"
         d="m 84.4375,2900.19 c 0.0273,0.01 0.0547,0.03 0.082,0.04 -0.0234,-0.01 -0.0547,-0.03 -0.082,-0.04" /><path
         id="path116"
         style="fill:#7cbad8;fill-opacity:1;fill-rule:nonzero;stroke:none"
         d="m 2207.8,2900.2 c -0.02,0 -0.02,0.01 -0.04,0.01 0.01,0 0.03,-0.01 0.04,-0.01" /><path
         id="path118"
         style="fill:#c9dde6;fill-opacity:1;fill-rule:nonzero;stroke:none"
         d="m 84.7539,2900.34 c 0.0195,0.01 0.043,0.02 0.0586,0.03 -0.0156,-0.01 -0.0391,-0.02 -0.0586,-0.03" /><path
         id="path120"
         style="fill:#7cbad8;fill-opacity:1;fill-rule:nonzero;stroke:none"
         d="m 2207.47,2900.36 c -0.01,0 -0.02,0 -0.02,0.01 0,-0.01 0.01,-0.01 0.02,-0.01" /><path
         id="path122"
         style="fill:#c9dde6;fill-opacity:1;fill-rule:nonzero;stroke:none"
         d="m 85.0938,2900.51 c 0.0273,0.01 0.0507,0.02 0.0781,0.03 -0.0274,-0.01 -0.0508,-0.02 -0.0781,-0.03" /><path
         id="path124"
         style="fill:#7cbad8;fill-opacity:1;fill-rule:nonzero;stroke:none"
         d="m 2207.15,2900.51 c -0.02,0.01 -0.04,0.02 -0.06,0.03 0.02,-0.01 0.04,-0.02 0.06,-0.03" /><path
         id="path126"
         style="fill:#1e678c;fill-opacity:1;fill-rule:nonzero;stroke:none"
         d="m 2291.8,2771.91 c -12.68,12.28 -27.8,23.07 -45.33,31.39 -117.6,55.93 -238.42,102.41 -361.38,139.44 -240.86,72.54 -489.91,108.81 -738.96,108.81 -249.052,0 -498.103,-36.27 -738.966,-108.81 C 284.211,2905.71 163.383,2859.23 45.7852,2803.3 28.2578,2794.98 13.1289,2784.19 0.453125,2771.91 -3.125,2819.56 27.3633,2871.59 82.1406,2899.06 c 0.0157,0.01 0.0313,0.02 0.0469,0.02 0.2031,0.11 0.3984,0.2 0.6055,0.3 0.0195,0.01 0.0312,0.02 0.0468,0.03 0.1055,0.05 0.1993,0.1 0.3008,0.15 0.0078,0 0.0157,0 0.0196,0.01 0.0937,0.04 0.1796,0.09 0.2734,0.13 0.0234,0.01 0.0469,0.02 0.0703,0.04 0.0938,0.04 0.1836,0.09 0.2774,0.13 0.0273,0.01 0.0507,0.03 0.0742,0.04 0.082,0.04 0.1601,0.07 0.2383,0.11 0.0234,0.01 0.0429,0.02 0.0664,0.03 0.0898,0.05 0.1836,0.09 0.2773,0.14 0.0273,0.01 0.0586,0.03 0.082,0.04 0.0821,0.04 0.1563,0.07 0.2344,0.11 0.0195,0.01 0.043,0.02 0.0586,0.03 0.0938,0.05 0.1875,0.09 0.2813,0.14 0.0273,0.01 0.0507,0.02 0.0781,0.03 0.0976,0.05 0.1953,0.1 0.2929,0.14 113.3592,53.91 229.8242,98.72 348.3442,134.41 232.179,69.92 472.25,104.88 712.321,104.88 240.06,0 480.13,-34.96 712.31,-104.88 118.52,-35.69 234.99,-80.5 348.35,-134.41 0.1,-0.05 0.2,-0.09 0.3,-0.14 0.02,-0.01 0.04,-0.02 0.06,-0.03 0.1,-0.05 0.2,-0.1 0.3,-0.14 0,-0.01 0.01,-0.01 0.02,-0.01 0.1,-0.05 0.19,-0.1 0.29,-0.15 0.02,0 0.02,-0.01 0.04,-0.01 0.1,-0.05 0.21,-0.1 0.32,-0.16 v 0 c 56.03,-27.19 87.3,-79.91 83.68,-128.13" /><path
         id="path128"
         style="fill:#014b7c;fill-opacity:1;fill-rule:nonzero;stroke:none"
         d="m 96.6172,2625.62 c 14.6058,-16.24 29.1758,-32.51 43.5348,-48.93 22.993,-26.04 62.168,-32.65 95.004,-16.85 65.848,31.74 132.942,59.86 201,84.33 33.93,12.24 56.121,44.66 53.496,79.27 -1.242,15.48 -2.254,31.01 -3.351,46.52 -17.535,-4.85 -35.039,-9.85 -52.492,-15.1 C 319.16,2720.33 206.465,2677.2 96.6172,2625.62" /><path
         id="path130"
         style="fill:#014b7c;fill-opacity:1;fill-rule:nonzero;stroke:none"
         d="m 1856.09,2644.17 c 68.07,-24.47 135.16,-52.59 201.01,-84.33 32.83,-15.8 72.01,-9.19 95.01,16.85 14.35,16.42 28.92,32.69 43.53,48.93 -109.85,51.58 -222.55,94.71 -337.2,129.24 -17.44,5.25 -34.95,10.25 -52.49,15.1 -1.1,-15.51 -2.11,-31.04 -3.35,-46.52 -2.62,-34.61 19.57,-67.03 53.49,-79.27" /><g
         transform="scale(10)"
         id="g132"><text
           transform="scale(1,-1)"
           id="text1041"
           y="-297.80673"
           x="262.2851"
           style="font-style:normal;font-weight:normal;font-size:13px;line-height:1.25;font-family:sans-serif;fill:#1e678c;fill-opacity:1;stroke:none;stroke-width:0.75"
           xml:space="preserve"><tspan
             style="font-style:normal;font-variant:normal;font-weight:bold;font-stretch:normal;font-size:13px;font-family:sans-serif;-inkscape-font-specification:'sans-serif Bold';fill:#1e678c;fill-opacity:1;stroke-width:0.75"
             y="-297.80673"
             x="262.2851"
             id="tspan1039"
             sodipodi:role="line">cresentclean@gmail.com</tspan></text><text
           style="fill:black;fill-opacity:1;line-height:1.25;stroke:none;font-family:sans-serif;font-style:normal;font-weight:normal;font-size:30.00000075px;white-space:pre;shape-inside:url(#rect1045);"
           id="text1043"
           xml:space="preserve" /><text
           transform="scale(1,-1)"
           id="text1057"
           y="-251.47171"
           x="263.52951"
           style="font-style:normal;font-weight:normal;font-size:16px;line-height:1.25;font-family:sans-serif;fill:#000000;fill-opacity:1;stroke:none;stroke-width:0.75"
           xml:space="preserve"><tspan
             style="font-style:normal;font-variant:normal;font-weight:bold;font-stretch:normal;font-size:16px;font-family:sans-serif;-inkscape-font-specification:'sans-serif Bold';fill:#1e678c;fill-opacity:1;stroke-width:0.75"
             y="-251.47171"
             x="263.52951"
             id="tspan1055"
             sodipodi:role="line">+254702602164,</tspan><tspan
             id="tspan1059"
             style="font-style:normal;font-variant:normal;font-weight:bold;font-stretch:normal;font-size:16px;font-family:sans-serif;-inkscape-font-specification:'sans-serif Bold';fill:#1e678c;fill-opacity:1;stroke-width:0.75"
             y="-231.47171"
             x="263.52951"
             sodipodi:role="line">+254705675199</tspan></text><text
           transform="scale(1,-1)"
           id="text1063"
           y="-202.89587"
           x="264.18591"
           style="font-style:normal;font-weight:normal;font-size:15px;line-height:1.25;font-family:sans-serif;fill:#000000;fill-opacity:1;stroke:none;stroke-width:0.75"
           xml:space="preserve"><tspan
             id="tspan1067"
             style="font-style:normal;font-variant:normal;font-weight:bold;font-stretch:normal;font-size:15px;font-family:sans-serif;-inkscape-font-specification:'sans-serif Bold';fill:#1e678c;fill-opacity:1;stroke-width:0.75"
             y="-202.89587"
             x="264.18591"
             sodipodi:role="line">Nairobi, Kenya</tspan></text></g><path
         id="path142"
         style="fill:#26779b;fill-opacity:1;fill-rule:nonzero;stroke:none"
         d="m 2583.5,2997.69 c 0,99 -80.25,179.25 -179.25,179.25 -98.99,0 -179.24,-80.25 -179.24,-179.25 0,-98.99 80.25,-179.24 179.24,-179.24 99,0 179.25,80.25 179.25,179.24" /><path
         id="path144"
         style="fill:#ffffff;fill-opacity:1;fill-rule:nonzero;stroke:none"
         d="m 2404.48,2968.98 c 15.9,0 28.85,12.95 28.85,28.85 0,15.9 -12.95,28.85 -28.85,28.85 -15.9,0 -28.86,-12.95 -28.86,-28.85 0,-15.9 12.96,-28.85 28.86,-28.85 m 34.54,-4.51 c -18.25,-19.24 -48.67,-19.83 -67.91,-1.57 -9.62,9.02 -14.92,21.78 -14.92,34.93 0,26.5 21.59,48.09 48.08,48.09 26.51,0 48.09,-21.59 48.09,-48.09 v -14.32 c 0,-8.05 6.48,-14.33 14.34,-14.33 8.04,0 14.32,6.47 14.32,14.33 v 14.32 c 0,42.39 -34.54,76.94 -76.94,76.94 -42.39,0 -76.93,-34.55 -76.93,-76.94 0,-42.39 34.54,-76.94 76.93,-76.94 10.01,0 20.02,1.97 29.44,5.89 4.71,2.35 10.6,0.59 12.96,-4.31 2.35,-4.91 0.59,-10.6 -4.33,-12.96 l -1.36,-0.59 c -49.07,-20.41 -105.4,2.95 -125.62,52.01 -20.21,49.07 2.94,105.4 52.01,125.62 49.07,20.21 105.4,-2.95 125.62,-52.01 5.29,-11.59 7.85,-24.14 7.85,-36.71 v -14.32 c 0,-18.65 -14.92,-33.76 -33.56,-33.76 -11.2,-0.2 -21.79,5.49 -28.07,14.72" /><path
         id="path146"
         style="fill:#83c0dd;fill-opacity:1;fill-rule:nonzero;stroke:none"
         d="m 2433.52,2925.32 v 0 0 m 0,0.28 v 0.01 c 0,0 0,0 0,-0.01 m 0,0.25 c 0,0.02 0,0.04 0,0.06 0,-0.02 0,-0.04 0,-0.06 m 0,0.33 c 0,0 0,0.01 0,0.02 0,-0.01 0,-0.02 0,-0.02 m 0,0.18 c 0,0.14 0,0.28 0,0.42 v 0 c 0,-0.14 0,-0.28 0,-0.42 m 180.74,179.66 c -0.02,0 -0.02,0 -0.04,0 0.01,0 0.03,0 0.04,0 m -0.28,0 c -0.02,0 -0.03,0 -0.05,0 0.01,0 0.03,0 0.05,0 m -0.26,0.01 c -0.03,0 -0.05,0 -0.08,0 0.02,0 0.05,0 0.08,0 m -0.33,0 c -0.01,0 -0.03,0 -0.04,0 0.01,0 0.03,0 0.04,0 m -0.2,0 c -0.14,0 -0.28,0 -0.43,0 0.15,0 0.29,0 0.43,0" /><path
         id="path148"
         style="fill:#206a8f;fill-opacity:1;fill-rule:nonzero;stroke:none"
         d="m 2278.15,2870.37 c -32.48,32.16 -52.74,76.63 -53.14,125.86 v 0 c 0,0.1 0,0.19 0,0.28 0,0.01 0,0.01 0,0.01 0,0.08 0,0.16 0,0.24 0,0.02 0,0.04 0,0.06 0,0.09 0,0.18 0,0.27 0,0 0,0.01 0,0.02 0,0.05 0,0.1 0,0.16 0,0.14 0,0.28 0,0.42 0,99 80.25,179.25 179.24,179.25 v 0 c 0.15,0 0.29,0 0.43,0 0.05,0 0.11,0 0.16,0 0.01,0 0.03,0 0.04,0 0.08,0 0.16,0 0.25,0 0.03,0 0.05,0 0.08,0 0.07,0 0.14,0 0.21,-0.01 0.02,0 0.03,0 0.05,0 0.08,0 0.16,0 0.24,0 0.02,0 0.02,0 0.04,0 49.22,-0.4 93.67,-20.66 125.84,-53.13 l -58.82,-58.82 c -18.07,18.45 -43,28.87 -68.83,28.87 -12.27,0 -24.73,-2.35 -36.76,-7.3 -49.07,-20.22 -72.22,-76.55 -52.01,-125.62 5.11,-12.4 12.53,-23.16 21.56,-31.99 l -58.58,-58.57 m 72.34,72.33 c -14.39,14 -23.34,33.55 -23.34,55.13 0,42.39 34.54,76.94 76.93,76.94 21.59,0 41.14,-8.96 55.13,-23.34 l -20.29,-20.3 c -8.76,9.11 -21.05,14.79 -34.65,14.79 -26.49,0 -48.08,-21.59 -48.08,-48.09 0,-13.05 5.22,-25.71 14.7,-34.73 l -20.4,-20.4 m 34.18,34.18 c -5.57,5.27 -9.05,12.71 -9.05,20.95 0,15.9 12.96,28.85 28.86,28.85 8.24,0 15.68,-3.47 20.95,-9.04 l -40.76,-40.76" /><path
         id="path150"
         style="fill:#d4e4eb;fill-opacity:1;fill-rule:nonzero;stroke:none"
         d="m 2336.73,2928.94 c -9.03,8.83 -16.45,19.59 -21.56,31.99 -20.21,49.07 2.94,105.4 52.01,125.62 12.03,4.95 24.49,7.3 36.76,7.3 25.83,0 50.76,-10.42 68.83,-28.87 l -13.56,-13.55 c -13.99,14.38 -33.54,23.34 -55.13,23.34 -42.39,0 -76.93,-34.55 -76.93,-76.94 0,-21.58 8.95,-41.13 23.34,-55.13 l -13.76,-13.76 m 34.16,34.16 c -9.48,9.02 -14.7,21.68 -14.7,34.73 0,26.5 21.59,48.09 48.08,48.09 13.6,0 25.89,-5.68 34.65,-14.79 l -13.49,-13.49 c -5.27,5.57 -12.71,9.04 -20.95,9.04 -15.9,0 -28.86,-12.95 -28.86,-28.85 0,-8.24 3.48,-15.68 9.05,-20.95 l -13.78,-13.78" /><path
         inkscape:transform-center-y="-1.6702074"
         inkscape:transform-center-x="-27.226082"
         id="path152"
         style="fill:#26779b;fill-opacity:1;fill-rule:nonzero;stroke:none"
         d="m 2600.69,2497.83 c 0,98.99 -80.25,179.24 -179.25,179.24 -98.99,0 -179.24,-80.25 -179.24,-179.24 0,-99 80.25,-179.25 179.24,-179.25 99,0 179.25,80.25 179.25,179.25" /><path
         inkscape:transform-center-y="-2.783368"
         inkscape:transform-center-x="-27.164608"
         id="path154"
         style="fill:#ffffff;fill-opacity:1;fill-rule:nonzero;stroke:none"
         d="m 2508.34,2449.15 c -12.57,3.68 -48.91,21.5 -53.05,17.81 -4.15,-3.69 -21.77,-19.39 -21.77,-19.39 -11.64,2.63 -31.84,19.05 -42.45,30.96 -10.6,11.91 -24.6,33.86 -25.88,45.74 0,0 17.63,15.7 21.77,19.39 4.15,3.69 -9.38,41.83 -11.58,54.74 -2.21,12.91 -22.96,11.16 -31.94,8.73 -9,-2.43 -47.47,-68.32 24.55,-149.16 72.03,-80.84 141.9,-50.2 145.36,-41.55 3.43,8.65 7.56,29.06 -5.01,32.73" /><path
         id="path156"
         style="fill:#83c0dd;fill-opacity:1;fill-rule:nonzero;stroke:none"
         d="m 2433.52,2446.94 c 0,0.01 0,0.01 0,0.02 0,-0.01 0,-0.01 0,-0.02 m 0,0.29 v 0.01 c 0,-0.01 0,-0.01 0,-0.01 m 0,0.28 c 0,0.02 0,0.04 0,0.06 0,-0.01 0,-0.04 0,-0.06 m 180.38,179.81 c -0.01,0 -0.01,0 -0.01,0 h 0.01 m -0.28,0 c -0.01,0 -0.01,0 -0.02,0 0.01,0 0.01,0 0.02,0 m -0.29,0 c -0.01,0 -0.04,0 -0.06,0 0.02,0 0.04,0 0.06,0" /><path
         inkscape:transform-center-y="-5.3142073"
         inkscape:transform-center-x="-23.581416"
         id="path158"
         style="fill:#206a8f;fill-opacity:1;fill-rule:nonzero;stroke:none"
         d="m 2292.73,2373.24 c -30.98,32.01 -50.23,75.46 -50.53,123.45 0,0.01 0,0.01 0,0.02 0,0.09 0,0.18 0,0.27 0,0 0,0 0,0.01 0,0.09 0,0.18 0,0.27 0,0.02 0,0.05 0,0.06 0,0.17 0,0.34 0,0.51 v 0 c 0,98.99 80.25,179.24 179.24,179.24 0.17,0 0.34,0 0.51,0 0.02,0 0.05,0 0.06,0 0.1,0 0.18,0 0.27,0 0.01,0 0.01,0 0.02,0 0.09,0 0.17,0 0.27,0 0,0 0,0 0.01,0 48,-0.3 91.44,-19.54 123.44,-50.53 l -151.59,-151.6 c -1.2,1.23 -2.32,2.43 -3.36,3.59 -10.6,11.91 -24.6,33.86 -25.88,45.74 0,0 17.63,15.7 21.77,19.39 4.15,3.69 -9.38,41.83 -11.58,54.74 -1.39,8.12 -10.11,10.44 -18.63,10.44 -5.02,0 -9.98,-0.81 -13.31,-1.71 -9,-2.43 -47.47,-68.32 24.55,-149.16 1.51,-1.7 3.02,-3.34 4.53,-4.94 l -79.79,-79.79" /><path
         inkscape:transform-center-y="-6.0848739"
         inkscape:transform-center-x="-19.003302"
         id="path160"
         style="fill:#d4e4eb;fill-opacity:1;fill-rule:nonzero;stroke:none"
         d="m 2372.52,2453.03 c -1.51,1.6 -3.02,3.24 -4.53,4.94 -72.02,80.84 -33.55,146.73 -24.55,149.16 3.33,0.9 8.29,1.71 13.31,1.71 8.52,0 17.24,-2.32 18.63,-10.44 2.2,-12.91 15.73,-51.05 11.58,-54.74 -4.14,-3.69 -21.77,-19.39 -21.77,-19.39 1.28,-11.88 15.28,-33.83 25.88,-45.74 1.04,-1.16 2.16,-2.36 3.36,-3.59 l -21.91,-21.91" /><path
         id="path162"
         style="fill:#26779b;fill-opacity:1;fill-rule:nonzero;stroke:none"
         d="m 2575.0149,2087.724 c 0,98.99 -80.25,179.24 -179.25,179.24 -98.99,0 -179.24,-80.25 -179.24,-179.24 0,-99 80.25,-179.25 179.24,-179.25 99,0 179.25,80.25 179.25,179.25" /><path
         id="path164"
         style="fill:#ffffff;fill-opacity:1;fill-rule:nonzero;stroke:none"
         d="m 2395.7649,2072.914 c -27.66,0 -50.09,22.43 -50.09,50.1 0,27.67 22.43,50.1 50.09,50.1 27.68,0 50.1,-22.43 50.1,-50.1 0,-27.67 -22.42,-50.1 -50.1,-50.1 m 0.5,136.39 c -46.88,0 -84.79,-37.91 -84.79,-84.8 0,-45.88 37.91,-107.74 70.83,-151.63 6.98,-8.98 19.95,-8.98 26.93,0 32.92,43.89 70.83,105.75 70.83,151.63 0,46.89 -37.91,84.8 -83.8,84.8" /><path
         id="path166"
         style="fill:#83c0dd;fill-opacity:1;fill-rule:nonzero;stroke:none"
         d="m 2433.52,1982.56 c 0,0 0,0 0,0.01 v -0.01 m 0,0.57 c 0,0.01 0,0.02 0,0.03 0,-0.01 0,-0.02 0,-0.03 m 0,0.28 c 0,0.04 0,0.09 0,0.14 0,-0.05 0,-0.09 0,-0.14 m 0,0.28 c 0,0.1 0,0.19 0,0.29 v 0 c 0,-0.1 0,-0.19 0,-0.29 m 180.66,179.53 h -0.01 c 0.01,0 0.01,0 0.01,0 m -0.56,0 c -0.02,0 -0.03,0 -0.04,0 0.01,0 0.02,0 0.04,0 m -0.29,0 c -0.05,0 -0.09,0 -0.14,0 0.05,0 0.1,0 0.14,0 m -0.28,0 c -0.1,0 -0.19,0 -0.29,0 0.1,0 0.2,0 0.29,0" /><path
         id="path168"
         style="fill:#206a8f;fill-opacity:1;fill-rule:nonzero;stroke:none"
         d="m 2266.9749,1963.244 c -30.88,31.94 -50.08,75.22 -50.45,123.06 v 0.01 c 0,0.18 0,0.37 0,0.56 0,0.01 0,0.02 0,0.03 0,0.08 0,0.16 0,0.25 0,0.05 0,0.09 0,0.14 0,0.05 0,0.09 0,0.14 0,0.1 0,0.19 0,0.29 0,98.99 80.25,179.24 179.24,179.24 v 0 c 0.1,0 0.19,0 0.29,0 0.05,0 0.09,0 0.14,0 0.05,0 0.09,0 0.14,0 0.09,0 0.17,0 0.25,0 0.01,0 0.02,0 0.04,0 0.18,0 0.37,0 0.55,0 h 0.01 c 47.84,-0.37 91.14,-19.57 123.07,-50.43 l -50.81,-50.81 c -14.4,26.01 -41.94,43.58 -73.18,43.58 -46.88,0 -84.79,-37.91 -84.79,-84.8 0,-26.15 12.32,-57.5 29,-87.75 l -73.5,-73.51 m 112.41,112.42 c -19.62,6.79 -33.71,25.42 -33.71,47.35 0,27.67 22.43,50.1 50.09,50.1 21.94,0 40.57,-14.09 47.36,-33.71 l -63.74,-63.74" /><path
         id="path170"
         style="fill:#d4e4eb;fill-opacity:1;fill-rule:nonzero;stroke:none"
         d="m 2340.4749,2036.754 c -16.68,30.25 -29,61.6 -29,87.75 0,46.89 37.91,84.8 84.79,84.8 31.24,0 58.78,-17.57 73.18,-43.58 l -26.32,-26.32 c -6.79,19.62 -25.42,33.71 -47.36,33.71 -27.66,0 -50.09,-22.43 -50.09,-50.1 0,-21.93 14.09,-40.56 33.71,-47.35 l -38.91,-38.91" /></g></g></svg>
