<svg xmlns="http://www.w3.org/2000/svg" viewBox="0 0 499.24 500"><g style="isolation:isolate"><g id="a257aa22-3a70-4e3d-a1d2-d33b2b483e61" data-name="BACKGROUND"><rect width="499.24" height="500" style="fill:#e7eff2"/></g><g id="fee9da7e-f8a8-4778-b401-260a246824c3" data-name="OBJECTS"><rect x="63.9" y="71.97" width="152.05" height="167.69" style="fill:#d4d4d4;opacity:0.35000000000000003;mix-blend-mode:multiply"/><rect x="63.72" y="70.83" width="145.76" height="161.96" style="fill:#85c1d0"/><polygon points="128.28 70.83 128.28 132.91 171.21 132.91 209.48 165.22 209.48 70.83 128.28 70.83" style="fill:#a6dde6"/><rect x="65.08" y="164.83" width="145.76" height="4.46" style="fill:#eadacf"/><rect x="77.52" y="72.13" width="0.99" height="79.8" style="fill:#d4d4d4;opacity:0.63;mix-blend-mode:multiply"/><g style="opacity:0.63;mix-blend-mode:multiply"><rect x="66" y="84.57" width="144.22" height="0.99" style="fill:#d4d4d4"/><rect x="66" y="78.56" width="144.22" height="0.99" style="fill:#d4d4d4"/><rect x="66" y="91.57" width="144.22" height="0.99" style="fill:#d4d4d4"/><rect x="66" y="105.02" width="144.22" height="0.99" style="fill:#d4d4d4"/><rect x="66" y="112.12" width="144.22" height="0.99" style="fill:#d4d4d4"/><rect x="66" y="119.64" width="144.22" height="0.99" style="fill:#d4d4d4"/><rect x="66" y="98.54" width="144.22" height="0.99" style="fill:#d4d4d4"/></g><polygon points="207.93 165.22 69.08 165.22 69.08 70.83 63.72 70.83 63.72 165.22 63.72 171.85 63.72 232.8 69.08 232.8 69.08 171.85 207.93 171.85 207.93 165.22" style="fill:#d4d4d4;opacity:0.63;mix-blend-mode:multiply"/><path d="M212.28,235.37H60.92V67.81H212.28ZM66.51,229.78H206.68V73.41H66.51Z" transform="translate(0 0.22)" style="fill:#fff"/><rect x="63.72" y="164.45" width="145.76" height="4.46" style="fill:#fff"/><rect x="75.84" y="70.83" width="1.91" height="87.19" style="fill:#fff"/><rect x="63.72" y="76.56" width="144.22" height="1.91" style="fill:#fff"/><rect x="63.72" y="82.75" width="144.22" height="1.91" style="fill:#fff"/><rect x="63.72" y="89.65" width="144.22" height="1.91" style="fill:#fff"/><rect x="63.72" y="96.67" width="144.22" height="1.91" style="fill:#fff"/><rect x="63.72" y="103.2" width="144.22" height="1.91" style="fill:#fff"/><rect x="63.72" y="110.3" width="144.22" height="1.91" style="fill:#fff"/><rect x="63.72" y="117.78" width="144.22" height="1.91" style="fill:#fff"/><path d="M455.2,167.48l-40.57-62.74c-6.3-9.75-17.54-13.82-27.95-10.1l-104,37,1,2.59,104-37c9.14-3.26,19,.35,24.62,9L452.83,169a62.92,62.92,0,0,1,9.95,34.27V412.55h2.81V203.23A65.61,65.61,0,0,0,455.2,167.48Z" transform="translate(0 0.22)" style="fill:#5b6066"/><rect x="281.8" y="124.76" width="6.83" height="18.13" rx="2.37" style="fill:#85c1d0"/><path d="M284.75,135.9a41.22,41.22,0,0,0-37.65,23.66h75.31A41.23,41.23,0,0,0,284.75,135.9Z" transform="translate(0 0.22)" style="fill:#fff"/><rect x="445.73" y="408.61" width="37.73" height="4.27" style="fill:#fff"/><path d="M48.39,329.28a79.67,79.67,0,0,1-2.16-13.75c-.5-7.15-.15-17.27,4.33-24.93a22.06,22.06,0,0,1,14.13-10.46l.48,1.87a20.16,20.16,0,0,0-13,9.56c-8.13,13.89-2,37-2,37.21Z" transform="translate(0 0.22)" style="fill:#91af6d"/><path d="M47.68,310.36s-3-12.76-12.15-8.48C35.53,301.88,37.83,314.42,47.68,310.36Z" transform="translate(0 0.22)" style="fill:#91af6d"/><path d="M61.92,302.11s-11.61-3.05-15.06,6.45C46.86,308.56,57.83,311.94,61.92,302.11Z" transform="translate(0 0.22)" style="fill:#91af6d"/><path d="M48.45,297.35S53.1,286,44.3,281C44.3,281,39.43,291.68,48.45,297.35Z" transform="translate(0 0.22)" style="fill:#91af6d"/><path d="M49.58,294.23s9.78,6.09,15.54-2.21C65.12,292,56.05,285.77,49.58,294.23Z" transform="translate(0 0.22)" style="fill:#91af6d"/><path d="M58.1,283.83s9.77,6.09,15.54-2.21C73.64,281.62,64.57,275.37,58.1,283.83Z" transform="translate(0 0.22)" style="fill:#91af6d"/><path d="M61.86,322.13,56,314.41H39.39l-5.85,7.72a4.74,4.74,0,0,0-.32,5.24l4.1,7.1H58.08l4.1-7.1A4.74,4.74,0,0,0,61.86,322.13Z" transform="translate(0 0.22)" style="fill:#8a8a8a"/><path d="M18.81,334.78v62.08H75.89V334.78Zm3.91,29.09V338.68H72v25.19Zm0,29.09V367.77H72V393Z" transform="translate(0 0.22)" style="fill:#fff"/><rect x="27.67" y="342.72" width="4.71" height="21.33" rx="0.68" style="fill:#5b6066"/><rect x="33.17" y="342.72" width="4.71" height="21.33" rx="0.68" style="fill:#cac6ad"/><rect x="38.56" y="342.72" width="4.71" height="21.33" rx="0.68" style="fill:#8a8a8a"/><path d="M58.11,361.58l-2.92,1.64a.68.68,0,0,1-.91-.24L44,345.63a.63.63,0,0,1,.25-.88l2.93-1.65a.69.69,0,0,1,.91.24l10.32,17.35A.65.65,0,0,1,58.11,361.58Z" transform="translate(0 0.22)" style="fill:#cac6ad"/><path d="M64.65,361.58l-2.93,1.64a.68.68,0,0,1-.91-.24L50.49,345.63a.62.62,0,0,1,.24-.88l2.93-1.65a.69.69,0,0,1,.91.24l10.32,17.35A.65.65,0,0,1,64.65,361.58Z" transform="translate(0 0.22)" style="fill:#cac6ad"/><polygon points="123.85 401.47 122.28 422.88 127.62 422.88 136.09 401.47 123.85 401.47" style="fill:#775a43"/><polygon points="371.17 401.47 372.75 422.88 367.41 422.88 358.94 401.47 371.17 401.47" style="fill:#775a43"/><path d="M119.69,352.36l5.3-45c1.46-10.42,11.65-18.26,23.76-18.26H345.24c11.66,0,21.62,7.29,23.59,17.26l7.68,46Z" transform="translate(0 0.22)" style="fill:#405d76"/><path d="M375.42,327.23s-19.77,5.27-27.57,16.36H148.31s-5.31-15.53-23.84-15.34v27.11h253Z" transform="translate(0 0.22)" style="fill:#d4d4d4;opacity:0.55;mix-blend-mode:multiply"/><rect x="118.03" y="392.66" width="259.48" height="11.15" style="fill:#7e6961"/><path d="M394.74,323.26h-5.67a31.8,31.8,0,0,0-25.72,13A48.38,48.38,0,0,0,357,349.71l-108.79,1.72-108.8-1.72A48.19,48.19,0,0,0,133,336.24a31.8,31.8,0,0,0-25.72-13h-5.67c-10.79,0-15.71,10-13.38,20.5,2.85,12.91,6.39,29.69,16.18,43.6A25,25,0,0,0,124.9,397.8H371.46a25,25,0,0,0,20.48-10.44c9.79-13.91,13.33-30.69,16.18-43.6C410.45,333.23,405.53,323.26,394.74,323.26Z" transform="translate(0 0.22)" style="fill:#43607b"/><path d="M365.24,374.81H131.1a5.92,5.92,0,0,1-5.92-5.92h0a18.74,18.74,0,0,1,18.75-18.75H354.32A16.84,16.84,0,0,1,371.16,367v1.91A5.92,5.92,0,0,1,365.24,374.81Z" transform="translate(0 0.22)" style="fill:#365065"/><path d="M242,371.38H130.35a5.17,5.17,0,0,1-5.17-5.17h0a16.53,16.53,0,0,1,16.53-16.53H242a5.18,5.18,0,0,1,5.18,5.17v11.36A5.17,5.17,0,0,1,242,371.38Z" transform="translate(0 0.22)" style="fill:#4b6881"/><path d="M366,371.38H254.36a5.17,5.17,0,0,1-5.18-5.17V354.85a5.18,5.18,0,0,1,5.18-5.17H354.63a16.53,16.53,0,0,1,16.53,16.53h0A5.17,5.17,0,0,1,366,371.38Z" transform="translate(0 0.22)" style="fill:#4b6881"/><rect x="136.6" y="320.09" width="36.48" height="30.87" rx="5.26" transform="translate(-25.36 13.13) rotate(-4.41)" style="fill:#fdfffa"/><rect x="169.62" y="327.45" width="36.48" height="30.87" rx="5.26" style="fill:#85c1d0"/><rect x="304.79" y="324.83" width="36.48" height="30.87" rx="5.26" style="fill:#85c1d0"/><path d="M410.53,422.5c0,1.65-74.9,3-167.3,3s-167.29-1.33-167.29-3,74.9-3,167.29-3S410.53,420.86,410.53,422.5Z" transform="translate(0 0.22)" style="fill:#d4d4d4;opacity:0.35000000000000003;mix-blend-mode:multiply"/><path d="M396.14,228.94c0-6.42-5.41-10.55-12.09-10.55S372,222.52,372,228.94a11.53,11.53,0,0,0,5.79,9.92h12.58A11.52,11.52,0,0,0,396.14,228.94Z" transform="translate(0 0.22)" style="fill:#8a8a8a"/><rect x="295.9" y="238.97" width="121.16" height="6.16" style="fill:#fff"/><rect x="307.48" y="199.31" width="7.84" height="39.49" rx="1.2" style="fill:#cac6ad"/><rect x="316.64" y="199.31" width="7.84" height="39.49" rx="1.2" style="fill:#cac6ad"/><rect x="325.6" y="199.31" width="7.84" height="39.49" rx="1.2" style="fill:#5b6066"/><path d="M358.16,234.42l-4.88,3a1.06,1.06,0,0,1-1.51-.44l-17.18-32.13a1.25,1.25,0,0,1,.4-1.64l4.88-3a1.06,1.06,0,0,1,1.51.43l17.18,32.13A1.25,1.25,0,0,1,358.16,234.42Z" transform="translate(0 0.22)" style="fill:#cac6ad"/><path d="M369,234.42l-4.88,3a1.06,1.06,0,0,1-1.51-.44l-17.18-32.13a1.26,1.26,0,0,1,.41-1.64l4.87-3a1.06,1.06,0,0,1,1.51.43l17.18,32.13A1.25,1.25,0,0,1,369,234.42Z" transform="translate(0 0.22)" style="fill:#cac6ad"/><rect x="308.73" y="204.28" width="5.24" height="5.63" style="fill:#fff"/><rect x="317.94" y="234.2" width="5.24" height="1.45" style="fill:#fff"/><rect x="317.94" y="229.72" width="5.24" height="1.45" style="fill:#fff"/></g></g></svg>