<svg width="1440" height="151" viewBox="0 0 1440 151" fill="none" xmlns="http://www.w3.org/2000/svg">
<mask id="path-1-outside-1" maskUnits="userSpaceOnUse" x="-26" y="0" width="1516" height="156" fill="black">
<rect fill="white" x="-26" width="1516" height="156"/>
<path d="M-20.872 98.0415C-20.872 98.0415 -26.3427 130.142 34.2407 130.142C94.8242 130.142 304.708 37.1194 406.584 37.1194C473.729 37.1194 389.191 75.0234 447.557 98.0415C483.579 112.248 829.667 -33.1922 927.144 14.7281C974.601 38.0582 934.624 75.8588 989.654 98.0415C1113.89 148.123 1434.26 -66.3138 1463.06 37.1194C1485 115.936 1485 151 1485 151H-20.872V98.0415Z"/>
</mask>
<path d="M-20.872 98.0415C-20.872 98.0415 -26.3427 130.142 34.2407 130.142C94.8242 130.142 304.708 37.1194 406.584 37.1194C473.729 37.1194 389.191 75.0234 447.557 98.0415C483.579 112.248 829.667 -33.1922 927.144 14.7281C974.601 38.0582 934.624 75.8588 989.654 98.0415C1113.89 148.123 1434.26 -66.3138 1463.06 37.1194C1485 115.936 1485 151 1485 151H-20.872V98.0415Z" fill="white"/>
<path d="M-20.872 98.0415H-15.872L-25.8009 97.2015L-20.872 98.0415ZM447.557 98.0415L445.722 102.693L447.557 98.0415ZM927.144 14.7281L924.939 19.2152L927.144 14.7281ZM1485 151V156L1490 151H1485ZM-20.872 151H-25.872L-20.872 156V151ZM989.654 98.0415L987.784 102.679L989.654 98.0415ZM1463.06 37.1194L1467.87 35.7784L1467.87 35.7784L1463.06 37.1194ZM-20.872 98.0415C-25.8009 97.2015 -25.8017 97.2061 -25.8025 97.2107C-25.8028 97.2125 -25.8036 97.2173 -25.8041 97.2207C-25.8053 97.2277 -25.8065 97.2351 -25.8078 97.243C-25.8104 97.2589 -25.8133 97.2768 -25.8164 97.2968C-25.8226 97.3367 -25.8297 97.3847 -25.8375 97.4405C-25.8532 97.552 -25.8714 97.6951 -25.89 97.8675C-25.927 98.2122 -25.9654 98.6762 -25.9856 99.2429C-26.0258 100.374 -25.9944 101.929 -25.729 103.771C-25.1966 107.464 -23.7164 112.331 -19.9899 117.15C-12.4422 126.912 3.18938 135.142 34.2407 135.142V125.142C4.70864 125.142 -7.21618 117.322 -12.0789 111.033C-14.5577 107.828 -15.4962 104.669 -15.8313 102.344C-15.9997 101.176 -16.0141 100.223 -15.9919 99.5988C-15.9808 99.2877 -15.9608 99.0621 -15.9473 98.9365C-15.9405 98.8739 -15.9355 98.8367 -15.9341 98.8268C-15.9334 98.8219 -15.9336 98.8238 -15.935 98.8328C-15.9358 98.8373 -15.9367 98.8436 -15.9381 98.8517C-15.9387 98.8558 -15.9395 98.8603 -15.9403 98.8653C-15.9407 98.8678 -15.9414 98.8718 -15.9416 98.8731C-15.9423 98.8773 -15.943 98.8816 -20.872 98.0415ZM34.2407 135.142C50.2216 135.142 75.3847 129.093 105.057 120.406C134.923 111.662 170.14 99.9958 206.45 88.3935C242.826 76.7696 280.375 65.1844 315.156 56.5054C350.007 47.8093 381.745 42.1194 406.584 42.1194V32.1194C380.485 32.1194 347.784 38.0573 312.735 46.8029C277.618 55.5657 239.807 67.2362 203.406 78.868C166.936 90.5214 131.956 102.111 102.247 110.809C72.3428 119.564 48.5516 125.142 34.2407 125.142V135.142ZM406.584 42.1194C414.815 42.1194 420.356 42.7077 423.99 43.6371C427.689 44.5831 428.634 45.6794 428.857 46.0383C429.035 46.3246 429.324 47.0533 428.812 49.1267C428.29 51.2398 427.209 53.7078 425.788 56.9318C423.21 62.7797 419.381 71.171 421.068 79.7737C422.878 89.0088 430.45 96.6697 445.722 102.693L449.391 93.3902C435.481 87.9043 431.733 82.1954 430.881 77.8497C429.905 72.8715 432.07 67.471 434.938 60.9655C436.24 58.0129 437.744 54.6639 438.52 51.5259C439.305 48.3482 439.605 44.3917 437.354 40.7648C435.148 37.2105 431.226 35.1658 426.468 33.9489C421.645 32.7156 415.139 32.1194 406.584 32.1194V42.1194ZM445.722 102.693C449.046 104.004 453.437 104.193 458.108 103.912C462.953 103.62 468.802 102.766 475.454 101.485C488.767 98.9202 505.785 94.5449 525.325 89.0944C544.884 83.6383 567.106 77.066 590.84 70.0852C614.59 63.0996 639.879 55.6976 665.64 48.5606C717.196 34.277 770.47 21.1043 816.858 14.477C840.05 11.1637 861.392 9.50584 879.859 10.1295C898.386 10.7551 913.655 13.6681 924.939 19.2152L929.35 10.241C916.265 3.80806 899.395 0.783486 880.197 0.135171C860.939 -0.51518 838.969 1.2166 815.444 4.5775C768.4 11.2986 714.623 24.613 662.97 38.9236C637.126 46.0837 611.77 53.5055 588.018 60.4916C564.25 67.4825 542.113 74.0298 522.638 79.4622C503.143 84.9002 486.452 89.1823 473.562 91.6652C467.113 92.9076 461.738 93.6749 457.508 93.9296C453.105 94.1946 450.571 93.8553 449.391 93.3902L445.722 102.693ZM1485 146H-20.872V156H1485V146ZM924.939 19.2152C935.995 24.6506 941.547 30.6941 944.772 36.803C948.125 43.1555 949.187 49.9009 950.643 57.7296C952.057 65.3285 953.837 73.7784 959.197 81.739C964.622 89.7954 973.352 96.8614 987.784 102.679L991.523 93.4041C978.44 88.1303 971.531 82.1527 967.492 76.1536C963.388 70.0586 961.878 63.441 960.475 55.9006C959.115 48.5901 957.833 40.1246 953.616 32.1346C949.269 23.9011 942.022 16.4707 929.35 10.241L924.939 19.2152ZM1485 151C1490 151 1490 150.998 1490 150.997C1490 150.996 1490 150.994 1490 150.992C1490 150.989 1490 150.986 1490 150.981C1490 150.973 1490 150.963 1490 150.95C1490 150.925 1490 150.891 1490 150.848C1490 150.763 1490 150.644 1489.99 150.49C1489.99 150.182 1489.98 149.735 1489.95 149.147C1489.91 147.971 1489.82 146.232 1489.64 143.911C1489.29 139.271 1488.59 132.308 1487.2 122.887C1484.43 104.046 1478.9 75.3706 1467.87 35.7784L1458.24 38.4604C1469.16 77.6845 1474.6 105.95 1477.31 124.345C1478.67 133.542 1479.34 140.271 1479.67 144.668C1479.84 146.867 1479.92 148.482 1479.96 149.532C1479.98 150.057 1479.99 150.44 1480 150.684C1480 150.806 1480 150.893 1480 150.946C1480 150.972 1480 150.99 1480 150.999C1480 151.003 1480 151.006 1480 151.006C1480 151.006 1480 151.005 1480 151.005C1480 151.004 1480 151.003 1480 151.003C1480 151.001 1480 151 1485 151ZM1467.87 35.7784C1463.81 21.1835 1454.41 12.02 1441.2 7.37755C1428.34 2.85717 1412.05 2.66304 1393.75 5.08864C1357.13 9.94404 1309.99 25.6845 1260.51 42.8496C1210.78 60.0991 1158.48 78.8696 1110.83 90.2417C1062.95 101.669 1021 105.288 991.523 93.4041L987.784 102.679C1020.42 115.835 1065.12 111.431 1113.15 99.9686C1161.41 88.4515 1214.29 69.4676 1263.79 52.2973C1313.53 35.0426 1359.65 19.6977 1395.07 15.0019C1412.8 12.6519 1427.23 13.0657 1437.89 16.8117C1448.2 20.4356 1455.11 27.197 1458.24 38.4604L1467.87 35.7784ZM-15.872 151V98.0415H-25.872V151H-15.872Z" fill="#38AB51" mask="url(#path-1-outside-1)"/>
</svg>
